# xmcd CD database file
#
# Track frame offsets:
#	150
#	14379
#	28464
#	41009
#	53084
#	66004
#	79241
#	92763
#	105980
#	118409
#	132114
#	146031
#	159582
#	172290
#	185006
#	199955
#	214615
#	228411
#	241798
#	254883
#	268556
#	282199
#
# Disc length: 4003 seconds
#
# Revision: 1
# Processed by: cddbd v1.5.1PL0 Copyright (c) Steve Scherf et al.
# Submitted via: CDex 1.51
#
DISCID=4e0fa116
DTITLE=Dizzy Gillespie - Night In Tunisia
DYEAR=1998
DGENRE=Jazz
TTITLE0=52th Street Theme
TTITLE1=Night In Tunisia
TTITLE2=Ol' Man Bebop
TTITLE3=Anthropology
TTITLE4='Round About Midnight
TTITLE5=When I Grow Old To Dream
TTITLE6=Oop Bob Sh'bam
TTITLE7=One Bass Hit (Part 1)
TTITLE8=That's Earl, Brother
TTITLE9=I Can't Get Started
TTITLE10=Good Bait
TTITLE11=Blue 'n Boogie
TTITLE12=Dizzy Atmosphere
TTITLE13=All The Things You Are
TTITLE14=Salt Peanuts
TTITLE15=Hot House
TTITLE16=Shaw 'Nuff
TTITLE17=Confirmation
TTITLE18=Diggin' For Diz
TTITLE19=Dynamo A
TTITLE20=Dynamo B
TTITLE21=Halleluja
EXTD=YEAR: 1998
EXTT0=
EXTT1=
EXTT2=
EXTT3=
EXTT4=
EXTT5=
EXTT6=
EXTT7=
EXTT8=
EXTT9=
EXTT10=
EXTT11=
EXTT12=
EXTT13=
EXTT14=
EXTT15=
EXTT16=
EXTT17=
EXTT18=
EXTT19=
EXTT20=
EXTT21=
PLAYORDER=
